<?xml version="1.0" encoding="UTF-8" standalone="no"?>
<svg
   xmlns:dc="http://purl.org/dc/elements/1.1/"
   xmlns:cc="http://creativecommons.org/ns#"
   xmlns:rdf="http://www.w3.org/1999/02/22-rdf-syntax-ns#"
   xmlns:svg="http://www.w3.org/2000/svg"
   xmlns="http://www.w3.org/2000/svg"
   xmlns:xlink="http://www.w3.org/1999/xlink"
   xmlns:sodipodi="http://sodipodi.sourceforge.net/DTD/sodipodi-0.dtd"
   xmlns:inkscape="http://www.inkscape.org/namespaces/inkscape"
   version="1.1"
   width="48"
   height="48"
   id="svg4505"
   inkscape:version="0.91 r13725"
   sodipodi:docname="func_reset.svg"
   inkscape:export-filename="/home/daniel/Projects/refind-theme-elementary/elementary/func_reset.png"
   inkscape:export-xdpi="90"
   inkscape:export-ydpi="90">
  <sodipodi:namedview
     pagecolor="#ffffff"
     bordercolor="#666666"
     borderopacity="1"
     objecttolerance="10"
     gridtolerance="10"
     guidetolerance="10"
     inkscape:pageopacity="0"
     inkscape:pageshadow="2"
     inkscape:window-width="3200"
     inkscape:window-height="1674"
     id="namedview29"
     showgrid="false"
     inkscape:zoom="7.375"
     inkscape:cx="-31.050847"
     inkscape:cy="16"
     inkscape:window-x="0"
     inkscape:window-y="60"
     inkscape:window-maximized="1"
     inkscape:current-layer="svg4505" />
  <defs
     id="defs4507">
    <linearGradient
       id="linearGradient3820-7-2-2">
      <stop
         id="stop3822-2-6-36"
         style="stop-color:#3d3d3d;stop-opacity:1"
         offset="0" />
      <stop
         id="stop3864-8-7-6"
         style="stop-color:#686868;stop-opacity:0.49803922"
         offset="0.5" />
      <stop
         id="stop3824-1-2-4"
         style="stop-color:#686868;stop-opacity:0"
         offset="1" />
    </linearGradient>
    <radialGradient
       cx="99.157013"
       cy="186.17059"
       r="62.769119"
       fx="99.157013"
       fy="186.17059"
       id="radialGradient3043"
       xlink:href="#linearGradient3820-7-2-2"
       gradientUnits="userSpaceOnUse"
       gradientTransform="matrix(0.17524541,0,0,0.05575992,6.62319,26.119145)" />
    <linearGradient
       x1="71.204407"
       y1="6.2375584"
       x2="71.204407"
       y2="44.340794"
       id="linearGradient3012"
       xlink:href="#linearGradient4011"
       gradientUnits="userSpaceOnUse"
       gradientTransform="matrix(0.72972969,0,0,0.72972969,-28.346077,5.496069)" />
    <linearGradient
       id="linearGradient4011">
      <stop
         id="stop4013"
         style="stop-color:#ffffff;stop-opacity:1"
         offset="0" />
      <stop
         id="stop4015"
         style="stop-color:#ffffff;stop-opacity:0.23529412"
         offset="0.507761" />
      <stop
         id="stop4017"
         style="stop-color:#ffffff;stop-opacity:0.15686275"
         offset="0.83456558" />
      <stop
         id="stop4019"
         style="stop-color:#ffffff;stop-opacity:0.39215687"
         offset="1" />
    </linearGradient>
    <linearGradient
       id="linearGradient2867-449-88-871-390-598-476-591-434-148-57-177-3-8">
      <stop
         id="stop3750-8-9"
         style="stop-color:#90dbec;stop-opacity:1"
         offset="0" />
      <stop
         id="stop3752-3-2"
         style="stop-color:#42baea;stop-opacity:1"
         offset="0.26238" />
      <stop
         id="stop3754-7-2"
         style="stop-color:#3689e6;stop-opacity:1"
         offset="0.704952" />
      <stop
         id="stop3756-9-3"
         style="stop-color:#2b63a0;stop-opacity:1"
         offset="1" />
    </linearGradient>
    <radialGradient
       xlink:href="#linearGradient2867-449-88-871-390-598-476-591-434-148-57-177-3-8"
       id="radialGradient3146"
       gradientUnits="userSpaceOnUse"
       gradientTransform="matrix(0,2.1324684,-2.2558972,-5.8042511e-8,43.061889,-3.040933)"
       cx="2.8936849"
       cy="8.4497671"
       fx="2.8936849"
       fy="8.4497671"
       r="19.99999" />
  </defs>
  <metadata
     id="metadata4510">
    <rdf:RDF>
      <cc:Work
         rdf:about="">
        <dc:format>image/svg+xml</dc:format>
        <dc:type
           rdf:resource="http://purl.org/dc/dcmitype/StillImage" />
        <dc:title></dc:title>
      </cc:Work>
    </rdf:RDF>
  </metadata>
  <path
     d="m 35.000001,36.499999 a 11,3.4999999 0 1 1 -22,0 11,3.4999999 0 1 1 22,0 z"
     id="path3818-0-2"
     style="fill:url(#radialGradient3043);fill-opacity:1;stroke:none"
     inkscape:connector-curvature="0" />
  <path
     d="M 24.000002,9.4999989 C 15.999402,9.4999989 9.5,15.999398 9.5,23.999999 9.5,32.000599 15.999402,38.500002 24.000002,38.5 32.000599,38.5 38.500008,32.000599 38.5,23.999999 38.5,15.999398 32.000599,9.4999989 24.000002,9.4999989 Z"
     id="path2555"
     style="color:#000000;display:inline;overflow:visible;visibility:visible;fill:url(#radialGradient3146);fill-opacity:1;fill-rule:nonzero;stroke:none;stroke-width:1;marker:none;enable-background:accumulate"
     inkscape:connector-curvature="0" />
  <path
     d="m 37.5,23.999521 c 0,7.456085 -6.044601,13.500478 -13.499829,13.500478 C 16.54426,37.499999 10.5,31.455537 10.5,23.999521 10.5,16.543781 16.54426,10.5 24.000171,10.5 31.455399,10.5 37.5,16.543781 37.5,23.999521 l 0,0 z"
     id="path8655"
     style="color:#000000;display:inline;overflow:visible;visibility:visible;opacity:0.5;fill:none;stroke:url(#linearGradient3012);stroke-width:1;stroke-linecap:round;stroke-linejoin:round;stroke-miterlimit:4;stroke-dasharray:none;stroke-dashoffset:0;stroke-opacity:1;marker:none;enable-background:accumulate"
     inkscape:connector-curvature="0" />
  <path
     d="M 24.000002,9.4999991 C 15.999402,9.4999991 9.5,15.999398 9.5,23.999999 9.5,32.000599 15.999402,38.500002 24.000002,38.5 32.000599,38.5 38.500008,32.000599 38.5,23.999999 38.5,15.999398 32.000599,9.4999991 24.000002,9.4999991 Z"
     id="path2555-6"
     style="color:#000000;display:inline;overflow:visible;visibility:visible;opacity:0.5;fill:#000000;fill-opacity:0;fill-rule:nonzero;stroke:#00537d;stroke-width:1;stroke-linecap:round;stroke-linejoin:round;stroke-miterlimit:4;stroke-dasharray:none;stroke-dashoffset:0;stroke-opacity:1;marker:none;enable-background:accumulate"
     inkscape:connector-curvature="0" />
  <path
     style="color:#000000;clip-rule:nonzero;display:inline;overflow:visible;visibility:visible;opacity:0.05;isolation:auto;mix-blend-mode:normal;color-interpolation:sRGB;color-interpolation-filters:linearRGB;solid-color:#000000;solid-opacity:1;fill:#000000;fill-opacity:1;fill-rule:nonzero;stroke:none;stroke-width:1;stroke-linecap:butt;stroke-linejoin:miter;stroke-miterlimit:4;stroke-dasharray:none;stroke-dashoffset:0;stroke-opacity:1;marker:none;color-rendering:auto;image-rendering:auto;shape-rendering:auto;text-rendering:auto;enable-background:accumulate"
     id="path4225"
     d="M 23.939453,14.498047 A 1.0033192,1.0033192 0 0 0 22.996094,15.5 l 0,1.626953 c -4.073048,0.519014 -7.285156,3.877758 -7.285156,8.087891 -1e-6,4.565877 3.723185,8.289062 8.289062,8.289062 4.565876,0 8.289062,-3.723185 8.289062,-8.289062 a 1.0033192,1.0033192 0 0 0 -1.003906,-1.003906 l -2.427734,0 a 1.0033192,1.0033192 0 0 0 -1.003906,1.003906 c 0,2.140278 -1.713238,3.853515 -3.853516,3.853515 -2.140278,0 -3.853516,-1.713237 -3.853516,-3.853515 0,-1.783521 1.214344,-3.206018 2.84961,-3.652344 l 0,1.222656 a 1.0033192,1.0033192 0 0 0 1.519531,0.859375 l 6.072266,-3.642578 a 1.0033192,1.0033192 0 0 0 0,-1.71875 l -6.072266,-3.642578 a 1.0033192,1.0033192 0 0 0 -0.576172,-0.142578 z"
     inkscape:connector-curvature="0" />
  <path
     style="color:#000000;clip-rule:nonzero;display:inline;overflow:visible;visibility:visible;opacity:0.15;isolation:auto;mix-blend-mode:normal;color-interpolation:sRGB;color-interpolation-filters:linearRGB;solid-color:#000000;solid-opacity:1;fill:#000000;fill-opacity:1;fill-rule:nonzero;stroke:none;stroke-width:1;stroke-linecap:butt;stroke-linejoin:miter;stroke-miterlimit:4;stroke-dasharray:none;stroke-dashoffset:0;stroke-opacity:1;marker:none;color-rendering:auto;image-rendering:auto;shape-rendering:auto;text-rendering:auto;enable-background:accumulate"
     d="m 24,15.499999 0,2.428571 c -4.023791,0 -7.285714,3.261926 -7.285714,7.285716 0,4.023791 3.261923,7.285714 7.285714,7.285714 4.02379,0 7.285714,-3.261923 7.285714,-7.285714 l -2.428571,0 c 0,2.682527 -2.174616,4.857143 -4.857143,4.857143 -2.682527,0 -4.857143,-2.174616 -4.857143,-4.857143 0,-2.682527 2.174616,-4.857143 4.857143,-4.857143 l 0,2.428572 6.071428,-3.642857 L 24,15.499999 Z"
     id="path2984-7"
     inkscape:connector-curvature="0" />
  <path
     style="color:#bebebe;display:inline;overflow:visible;visibility:visible;opacity:1;fill:#ffffff;fill-opacity:1;fill-rule:nonzero;stroke:none;stroke-width:1;marker:none;enable-background:accumulate"
     d="m 24,14.499999 0,2.428571 c -4.023791,0 -7.285714,3.261926 -7.285714,7.285716 0,4.023791 3.261923,7.285714 7.285714,7.285714 4.02379,0 7.285714,-3.261923 7.285714,-7.285714 l -2.428571,0 c 0,2.682527 -2.174616,4.857143 -4.857143,4.857143 -2.682527,0 -4.857143,-2.174616 -4.857143,-4.857143 0,-2.682527 2.174616,-4.857143 4.857143,-4.857143 l 0,2.428572 6.071428,-3.642857 L 24,14.499999 Z"
     id="path2984"
     inkscape:connector-curvature="0" />
</svg>
