<?xml version="1.0" encoding="UTF-8" standalone="no"?>
<svg
   xmlns:dc="http://purl.org/dc/elements/1.1/"
   xmlns:cc="http://creativecommons.org/ns#"
   xmlns:rdf="http://www.w3.org/1999/02/22-rdf-syntax-ns#"
   xmlns:svg="http://www.w3.org/2000/svg"
   xmlns="http://www.w3.org/2000/svg"
   xmlns:xlink="http://www.w3.org/1999/xlink"
   xmlns:sodipodi="http://sodipodi.sourceforge.net/DTD/sodipodi-0.dtd"
   xmlns:inkscape="http://www.inkscape.org/namespaces/inkscape"
   version="1.1"
   width="48"
   height="48"
   id="svg4248"
   inkscape:version="0.91 r13725"
   sodipodi:docname="func_shutdown.svg"
   inkscape:export-filename="/home/daniel/Projects/refind-theme-elementary/elementary/func_shutdown.png"
   inkscape:export-xdpi="90"
   inkscape:export-ydpi="90">
  <sodipodi:namedview
     pagecolor="#ffffff"
     bordercolor="#666666"
     borderopacity="1"
     objecttolerance="10"
     gridtolerance="10"
     guidetolerance="10"
     inkscape:pageopacity="0"
     inkscape:pageshadow="2"
     inkscape:window-width="3200"
     inkscape:window-height="1674"
     id="namedview29"
     showgrid="false"
     inkscape:zoom="7.375"
     inkscape:cx="-17.559322"
     inkscape:cy="16"
     inkscape:window-x="0"
     inkscape:window-y="60"
     inkscape:window-maximized="1"
     inkscape:current-layer="svg4248" />
  <defs
     id="defs4250">
    <linearGradient
       id="linearGradient4011-4">
      <stop
         id="stop4013-8"
         style="stop-color:#ffffff;stop-opacity:1"
         offset="0" />
      <stop
         id="stop4015-5"
         style="stop-color:#ffffff;stop-opacity:0.23529412"
         offset="0.507761" />
      <stop
         id="stop4017-6"
         style="stop-color:#ffffff;stop-opacity:0.15686275"
         offset="0.83456558" />
      <stop
         id="stop4019-1"
         style="stop-color:#ffffff;stop-opacity:0.39215687"
         offset="1" />
    </linearGradient>
    <linearGradient
       x1="71.204407"
       y1="6.2375584"
       x2="71.204407"
       y2="44.340794"
       id="linearGradient3089"
       xlink:href="#linearGradient4011-4"
       gradientUnits="userSpaceOnUse"
       gradientTransform="matrix(0.72972969,0,0,0.72972969,-28.346075,5.496069)" />
    <radialGradient
       cx="0.96534902"
       cy="8.4497671"
       r="19.99999"
       fx="0.96534902"
       fy="8.4497671"
       id="radialGradient3092"
       xlink:href="#linearGradient2867-449-88-871-390-598-476-591-434-148-57-177-8-3-3-6-4-8-8-8-5"
       gradientUnits="userSpaceOnUse"
       gradientTransform="matrix(0,4.7500023,-5.0249359,-1.3352823e-7,66.459621,-9.585409)" />
    <linearGradient
       id="linearGradient3820-7-2-2">
      <stop
         id="stop3822-2-6-36"
         style="stop-color:#3d3d3d;stop-opacity:1"
         offset="0" />
      <stop
         id="stop3864-8-7-6"
         style="stop-color:#686868;stop-opacity:0.49803922"
         offset="0.5" />
      <stop
         id="stop3824-1-2-4"
         style="stop-color:#686868;stop-opacity:0"
         offset="1" />
    </linearGradient>
    <radialGradient
       cx="99.157013"
       cy="186.17059"
       r="62.769119"
       fx="99.157013"
       fy="186.17059"
       id="radialGradient3315"
       xlink:href="#linearGradient3820-7-2-2"
       gradientUnits="userSpaceOnUse"
       gradientTransform="matrix(0.17524541,0,0,0.05575992,6.6231899,26.118568)" />
    <linearGradient
       id="linearGradient2867-449-88-871-390-598-476-591-434-148-57-177-8-3-3-6-4-8-8-8-5">
      <stop
         id="stop3750-1-0-7-6-6-1-3-9-3"
         style="stop-color:#919caf;stop-opacity:1"
         offset="0" />
      <stop
         id="stop3752-3-7-4-0-32-8-923-0-7"
         style="stop-color:#68758e;stop-opacity:1"
         offset="0.26238" />
      <stop
         id="stop3754-1-8-5-2-7-6-7-1-9"
         style="stop-color:#485a6c;stop-opacity:1"
         offset="0.704952" />
      <stop
         id="stop3756-1-6-2-6-6-1-96-6-0"
         style="stop-color:#444c5c;stop-opacity:1"
         offset="1" />
    </linearGradient>
  </defs>
  <metadata
     id="metadata4253">
    <rdf:RDF>
      <cc:Work
         rdf:about="">
        <dc:format>image/svg+xml</dc:format>
        <dc:type
           rdf:resource="http://purl.org/dc/dcmitype/StillImage" />
        <dc:title></dc:title>
      </cc:Work>
    </rdf:RDF>
  </metadata>
  <path
     d="m 35.000001,36.499422 a 11,3.4999999 0 1 1 -22,0 11,3.4999999 0 1 1 22,0 z"
     id="path3818-0-2"
     style="fill:url(#radialGradient3315);fill-opacity:1;stroke:none"
     inkscape:connector-curvature="0" />
  <path
     d="M 24.000002,9.499999 C 15.999402,9.499999 9.5,15.999398 9.5,23.999998 9.5,32.0006 15.999402,38.500002 24.000002,38.5 32.000599,38.5 38.500007,32.0006 38.5,23.999998 38.5,15.999398 32.000599,9.499999 24.000002,9.499999 Z"
     id="path2555"
     style="color:#000000;display:inline;overflow:visible;visibility:visible;fill:url(#radialGradient3092);fill-opacity:1;fill-rule:nonzero;stroke:none;stroke-width:1;marker:none;enable-background:accumulate"
     inkscape:connector-curvature="0" />
  <path
     d="m 24.000002,9.499999 c -8.0006,0 -14.500002,6.499399 -14.500002,14.5 0,8.0006 6.499402,14.500003 14.500002,14.500001 8.000596,0 14.500006,-6.499401 14.499998,-14.500001 0,-8.000601 -6.499402,-14.5 -14.499998,-14.5 z"
     id="path2555-6"
     style="color:#000000;clip-rule:nonzero;display:inline;overflow:visible;visibility:visible;opacity:0.5;isolation:auto;mix-blend-mode:normal;color-interpolation:sRGB;color-interpolation-filters:linearRGB;solid-color:#000000;solid-opacity:1;fill:none;fill-opacity:1;fill-rule:nonzero;stroke:#1c2c38;stroke-width:1;stroke-linecap:round;stroke-linejoin:round;stroke-miterlimit:4;stroke-dasharray:none;stroke-dashoffset:0;stroke-opacity:1;marker:none;color-rendering:auto;image-rendering:auto;shape-rendering:auto;text-rendering:auto;enable-background:accumulate"
     inkscape:connector-curvature="0" />
  <path
     d="m 37.5,23.999521 c 0,7.456085 -6.044601,13.500478 -13.499829,13.500478 C 16.54426,37.499999 10.5,31.455537 10.5,23.999521 10.5,16.543781 16.54426,10.5 24.000171,10.5 31.455399,10.5 37.5,16.543781 37.5,23.999521 l 0,0 z"
     id="path8655"
     style="color:#000000;display:inline;overflow:visible;visibility:visible;opacity:0.3;fill:none;stroke:url(#linearGradient3089);stroke-width:1;stroke-linecap:round;stroke-linejoin:round;stroke-miterlimit:4;stroke-dasharray:none;stroke-dashoffset:0;stroke-opacity:1;marker:none;enable-background:accumulate"
     inkscape:connector-curvature="0" />
  <path
     style="color:#000000;clip-rule:nonzero;display:inline;overflow:visible;visibility:visible;opacity:0.15;isolation:auto;mix-blend-mode:normal;color-interpolation:sRGB;color-interpolation-filters:linearRGB;solid-color:#000000;solid-opacity:1;fill:#1c2c38;fill-opacity:1;fill-rule:nonzero;stroke:none;stroke-width:1;stroke-linecap:butt;stroke-linejoin:miter;stroke-miterlimit:4;stroke-dasharray:none;stroke-dashoffset:0;stroke-opacity:1;marker:none;color-rendering:auto;image-rendering:auto;shape-rendering:auto;text-rendering:auto;enable-background:accumulate"
     id="path4670"
     d="m 24,13.599609 c -1.267319,0 -2.316406,1.052902 -2.316406,2.31836 l 0,1.876953 c -0.430669,-0.592713 -1.027474,-1.041016 -1.806641,-1.041016 -0.466845,0 -0.798225,0.160593 -1.003906,0.257813 a 1.0237971,1.0237971 0 0 0 -0.0918,0.04883 l -0.404297,0.24414 a 1.0237971,1.0237971 0 0 0 -0.03516,0.02148 c -2.05964,1.358517 -3.480098,3.467914 -4.050774,5.900391 -0.01514,0.01491 -0.04687,0.04492 -0.04687,0.04492 -2.5e-5,3.4e-5 -0.183587,0.421838 -0.183594,0.421875 a 1.0237971,1.0237971 0 0 0 -0.0039,0.01758 c -0.0663,0.393411 -0.03979,0.473123 -0.0039,0.226562 l 0.0019,-0.0059 c -0.05942,0.396387 -0.132813,0.847499 -0.132813,1.365234 0,5.396206 4.543662,9.753906 10.078125,9.753906 5.534463,0 10.078124,-4.3577 10.078125,-9.753906 0,-0.431119 -0.03684,-0.839643 -0.08789,-1.226563 a 1.0237971,1.0237971 0 0 0 -0.002,-0.002 c -0.04045,-0.302128 -0.09539,-0.418861 -0.08594,-0.365234 -0.467856,-2.655869 -2.040082,-4.923185 -4.244141,-6.376953 a 1.0237971,1.0237971 0 0 0 -0.03516,-0.02148 L 29.21875,17.060547 a 1.0237971,1.0237971 0 0 0 -0.0918,-0.04883 c -0.205699,-0.09723 -0.537069,-0.257813 -1.003903,-0.257813 -0.779167,0 -1.375972,0.448303 -1.806641,1.041016 l 0,-1.876953 c 0,-1.26546 -1.049088,-2.31836 -2.316406,-2.31836 z m -2.316406,6.929688 0,3.150391 c 0,1.265457 1.050948,2.316406 2.316406,2.316406 1.265457,0 2.316406,-1.050947 2.316406,-2.316406 l 0,-3.150391 c 0.116688,0.146069 0.211339,0.314752 0.353516,0.429687 0.151019,0.122098 0.330257,0.246125 0.570312,0.347657 l -0.167968,-0.0918 c 1.052465,0.700333 1.827667,1.746309 2.169922,2.947265 0.105703,0.370949 0.128127,0.410259 0.03516,0.06836 0.111003,0.407785 0.167968,0.819053 0.167968,1.267578 0,2.870852 -2.404489,5.203125 -5.445312,5.203125 -3.040823,0 -5.445313,-2.332273 -5.445312,-5.203125 0,-0.448523 0.05696,-0.85979 0.167968,-1.267578 a 1.0237971,1.0237971 0 0 0 0,-0.002 c -0.09024,0.332753 -0.07366,0.315233 0.03516,-0.06641 0.342255,-1.200956 1.117457,-2.246932 2.169922,-2.947265 l -0.167968,0.0918 c 0.240082,-0.101539 0.419311,-0.225578 0.570312,-0.347657 0.142178,-0.114935 0.236828,-0.283617 0.353516,-0.429687 z"
     inkscape:connector-curvature="0" />
  <path
     d="m 19.876532,17.776683 c -0.203664,0 -0.393298,0.08009 -0.565968,0.161705 l -0.40426,0.242557 c -1.984241,1.308779 -3.382771,3.331283 -3.80006,5.700089 -4.45e-4,0.0026 -0.03998,-0.0024 -0.04043,0 -0.01099,0.06524 0.0096,0.136365 0,0.202131 -0.05989,0.399517 -0.121279,0.795031 -0.121279,1.212784 0,4.822579 4.054269,8.732051 9.055461,8.732051 5.001192,0 9.05546,-3.909472 9.05546,-8.732051 0,-0.370962 -0.03347,-0.732435 -0.08085,-1.091506 -0.01495,-0.111667 -0.06144,-0.21328 -0.08085,-0.323409 -0.417287,-2.368806 -1.815817,-4.39131 -3.800058,-5.700089 l -0.404261,-0.242557 c -0.17267,-0.08162 -0.362303,-0.161705 -0.565967,-0.161705 -0.736656,0 -1.334063,0.597407 -1.334063,1.334063 0,0.419245 0.223064,0.806559 0.52554,1.05108 0.09613,0.07772 0.207949,0.153297 0.323409,0.202131 1.250004,0.83178 2.176339,2.075122 2.587275,3.517077 0.0078,0.02751 0.03293,0.05327 0.04043,0.08085 0.13445,0.493921 0.202131,1.000224 0.202131,1.536194 0,3.4447 -2.895905,6.225629 -6.468186,6.225629 -3.572281,0 -6.468186,-2.780929 -6.468186,-6.225629 0,-0.53597 0.06768,-1.042273 0.202131,-1.536194 0.0078,-0.02876 0.03228,-0.05226 0.04043,-0.08085 0.410936,-1.441955 1.337271,-2.685297 2.587276,-3.517077 0.115456,-0.04883 0.227272,-0.124409 0.323408,-0.202131 0.302477,-0.244521 0.525541,-0.631835 0.525541,-1.05108 0,-0.736656 -0.597407,-1.334063 -1.334063,-1.334063 z M 24,14.623443 c 0.716674,0 1.293637,0.576962 1.293637,1.293637 l 0,7.761823 c 0,0.716675 -0.576963,1.293637 -1.293637,1.293637 -0.716676,0 -1.293638,-0.576962 -1.293638,-1.293637 l 0,-7.761823 c 0,-0.716675 0.576962,-1.293637 1.293638,-1.293637 z"
     id="path3782-3"
     style="color:#000000;clip-rule:nonzero;display:inline;overflow:visible;visibility:visible;opacity:0.3;isolation:auto;mix-blend-mode:normal;color-interpolation:sRGB;color-interpolation-filters:linearRGB;solid-color:#000000;solid-opacity:1;fill:#1c2c38;fill-opacity:1;fill-rule:nonzero;stroke:none;stroke-width:1;stroke-linecap:butt;stroke-linejoin:miter;stroke-miterlimit:4;stroke-dasharray:none;stroke-dashoffset:0;stroke-opacity:1;marker:none;color-rendering:auto;image-rendering:auto;shape-rendering:auto;text-rendering:auto;enable-background:accumulate"
     inkscape:connector-curvature="0" />
  <path
     d="m 19.876532,16.776479 c -0.203664,0 -0.393298,0.08009 -0.565968,0.161705 l -0.40426,0.242557 c -1.984241,1.308779 -3.382771,3.331283 -3.80006,5.700089 -4.45e-4,0.0026 -0.03998,-0.0024 -0.04043,0 -0.01099,0.06524 0.0096,0.136365 0,0.202131 -0.05989,0.399517 -0.121279,0.795031 -0.121279,1.212784 0,4.822579 4.054269,8.732051 9.055461,8.732051 5.001192,0 9.05546,-3.909472 9.05546,-8.732051 0,-0.370962 -0.03347,-0.732435 -0.08085,-1.091506 -0.01495,-0.111667 -0.06144,-0.21328 -0.08085,-0.323409 -0.417287,-2.368806 -1.815817,-4.39131 -3.800058,-5.700089 l -0.404261,-0.242557 c -0.17267,-0.08162 -0.362303,-0.161705 -0.565967,-0.161705 -0.736656,0 -1.334063,0.597407 -1.334063,1.334063 0,0.419245 0.223064,0.806559 0.52554,1.05108 0.09613,0.07772 0.207949,0.153297 0.323409,0.202131 1.250004,0.83178 2.176339,2.075122 2.587275,3.517077 0.0078,0.02751 0.03293,0.05327 0.04043,0.08085 0.13445,0.493921 0.202131,1.000224 0.202131,1.536194 0,3.4447 -2.895905,6.225629 -6.468186,6.225629 -3.572281,0 -6.468186,-2.780929 -6.468186,-6.225629 0,-0.53597 0.06768,-1.042273 0.202131,-1.536194 0.0078,-0.02876 0.03228,-0.05226 0.04043,-0.08085 0.410936,-1.441955 1.337271,-2.685297 2.587276,-3.517077 0.115456,-0.04883 0.227272,-0.124409 0.323408,-0.202131 0.302477,-0.244521 0.525541,-0.631835 0.525541,-1.05108 0,-0.736655 -0.597407,-1.334063 -1.334063,-1.334063 z M 24,13.623239 c 0.716674,0 1.293637,0.576962 1.293637,1.293637 l 0,7.761823 c 0,0.716675 -0.576963,1.293637 -1.293637,1.293637 -0.716676,0 -1.293638,-0.576962 -1.293638,-1.293637 l 0,-7.761823 c 0,-0.716675 0.576962,-1.293637 1.293638,-1.293637 z"
     id="path3782"
     style="color:#000000;display:inline;overflow:visible;visibility:visible;opacity:1;fill:#ffffff;fill-opacity:1;fill-rule:nonzero;stroke:none;stroke-width:1px;marker:none;enable-background:accumulate"
     inkscape:connector-curvature="0" />
</svg>
